<svg width="45" height="46" viewBox="0 0 45 46" fill="none" xmlns="http://www.w3.org/2000/svg">
<ellipse cx="22.5" cy="22.8216" rx="22.5" ry="22.4012" fill="#037E8C"/>
<g clip-path="url(#clip0_23_2945)">
<path d="M27.5304 34.271C26.788 34.271 26.0519 34.1404 25.332 33.88C22.1607 32.733 19.2171 30.865 16.8193 28.4777C14.4215 26.0905 12.5452 23.1597 11.3932 20.0024C11.023 18.9877 10.9138 17.9403 11.0686 16.8892C11.2136 15.9045 11.5967 14.9487 12.1765 14.1249C12.7588 13.2975 13.5351 12.6093 14.4214 12.1347C15.3666 11.6287 16.3983 11.3721 17.4879 11.3721C17.8268 11.3721 18.1196 11.6078 18.1907 11.9377L19.3188 17.1791C19.3699 17.4165 19.2966 17.6634 19.1242 17.8351L17.1966 19.7542C19.015 23.3538 21.9657 26.2915 25.5812 28.102L27.5088 26.1828C27.6812 26.0112 27.9293 25.9384 28.1676 25.9891L33.4322 27.1123C33.7636 27.183 34.0003 27.4746 34.0003 27.812C34.0003 28.8968 33.7426 29.924 33.2343 30.865C32.7576 31.7475 32.0664 32.5204 31.2353 33.1001C30.4079 33.6773 29.4479 34.0587 28.4588 34.2031C28.1489 34.2484 27.8391 34.271 27.5304 34.271ZM16.9136 12.8345C15.4764 12.9925 14.2008 13.7425 13.3537 14.9462C12.4011 16.2997 12.179 17.9645 12.7442 19.5138C14.959 25.5838 19.7259 30.3299 25.8228 32.5349C27.3788 33.0977 29.051 32.8765 30.4105 31.9281C31.6196 31.0847 32.3729 29.8147 32.5315 28.3838L28.2488 27.4701L26.2357 29.4744C26.0214 29.6877 25.696 29.7443 25.4218 29.6161C21.1459 27.6161 17.6847 24.1701 15.6759 19.9129C15.5471 19.64 15.604 19.3159 15.8182 19.1027L17.8314 17.0984L16.9136 12.8345Z" fill="white"/>
</g>
<defs>
<clipPath id="clip0_23_2945">
<rect width="23" height="22.899" fill="white" transform="translate(11 11.3721)"/>
</clipPath>
</defs>
</svg>
