<svg width="45" height="46" viewBox="0 0 45 46" fill="none" xmlns="http://www.w3.org/2000/svg">
<ellipse cx="22.5" cy="22.8216" rx="22.5" ry="22.4012" fill="#037E8C"/>
<g clip-path="url(#clip0_23_2931)">
<path d="M33.4259 21.2871C33.4252 21.2866 33.4247 21.2859 33.4241 21.2854L24.0419 11.9447C23.642 11.5464 23.1103 11.3271 22.5448 11.3271C21.9792 11.3271 21.4475 11.5464 21.0474 11.9447L11.6701 21.2807C11.667 21.2838 11.6637 21.2871 11.6607 21.2903C10.8394 22.1126 10.8408 23.4468 11.6647 24.2671C12.0411 24.642 12.5381 24.859 13.0696 24.8819C13.0913 24.884 13.1131 24.885 13.135 24.885H13.5088V31.759C13.5088 33.1194 14.6206 34.2262 15.987 34.2262H19.6577C20.0298 34.2262 20.3315 33.9257 20.3315 33.5553V28.166C20.3315 27.5452 20.8388 27.0404 21.4623 27.0404H23.6273C24.2508 27.0404 24.7579 27.5452 24.7579 28.166V33.5553C24.7579 33.9257 25.0595 34.2262 25.4317 34.2262H29.1023C30.4689 34.2262 31.5806 33.1194 31.5806 31.759V24.885H31.9273C32.4927 24.885 33.0244 24.6658 33.4247 24.2672C34.2494 23.4458 34.2497 22.1091 33.4259 21.2871ZM32.4716 23.3186C32.3262 23.4634 32.1328 23.5433 31.9273 23.5433H30.9067C30.5346 23.5433 30.2329 23.8436 30.2329 24.2141V31.759C30.2329 32.3795 29.7258 32.8844 29.1023 32.8844H26.1055V28.166C26.1055 26.8055 24.9939 25.6986 23.6273 25.6986H21.4623C20.0956 25.6986 18.9838 26.8055 18.9838 28.166V32.8844H15.987C15.3637 32.8844 14.8564 32.3795 14.8564 31.759V24.2141C14.8564 23.8436 14.5548 23.5433 14.1826 23.5433H13.1796C13.1691 23.5426 13.1587 23.542 13.148 23.5419C12.9473 23.5384 12.759 23.4591 12.6179 23.3184C12.3178 23.0197 12.3178 22.5335 12.6179 22.2345C12.6181 22.2345 12.6181 22.2344 12.6182 22.2342L12.6188 22.2337L22.0006 12.8934C22.1459 12.7486 22.3391 12.6689 22.5448 12.6689C22.7503 12.6689 22.9435 12.7486 23.0889 12.8934L32.4687 22.2318C32.4701 22.2331 32.4716 22.2345 32.473 22.2359C32.7715 22.5352 32.771 23.0204 32.4716 23.3186Z" fill="white"/>
</g>
<defs>
<clipPath id="clip0_23_2931">
<rect width="23" height="22.899" fill="white" transform="translate(11 11.3721)"/>
</clipPath>
</defs>
</svg>
