<svg width="45" height="45" viewBox="0 0 45 45" fill="none" xmlns="http://www.w3.org/2000/svg">
<ellipse cx="22.5" cy="22.448" rx="22.5" ry="22.4012" fill="#037E8C"/>
<path d="M32.8027 12.9683H12.1973C10.9872 12.9683 10 13.9501 10 15.1559V29.74C10 30.9417 10.9828 31.9276 12.1973 31.9276H32.8027C34.0098 31.9276 35 30.9491 35 29.74V15.1559C35 13.9541 34.0172 12.9683 32.8027 12.9683ZM32.4993 14.4267L22.5466 24.3357L12.5078 14.4267H32.4993ZM11.4648 29.438V15.4509L18.5195 22.4143L11.4648 29.438ZM12.5006 30.4692L19.5597 23.4411L22.0332 25.8826C22.3195 26.1652 22.7816 26.1643 23.0667 25.8803L25.4785 23.4792L32.4994 30.4692H12.5006ZM33.5352 29.4379L26.5143 22.4479L33.5352 15.4579V29.4379Z" fill="white"/>
</svg>
