<svg width="25" height="24" viewBox="0 0 25 24" fill="none" xmlns="http://www.w3.org/2000/svg">
<path d="M6.01926 4.502C5.62807 4.50161 5.24065 4.57836 4.87916 4.72788C4.51768 4.8774 4.18923 5.09674 3.91262 5.37336C3.63601 5.64997 3.41666 5.97842 3.26714 6.3399C3.11763 6.70139 3.04087 7.08881 3.04126 7.48C3.04126 9.713 6.01926 13.01 6.01926 13.01C6.01926 13.01 8.99726 9.713 8.99726 7.48C8.99766 7.08881 8.9209 6.70139 8.77138 6.3399C8.62186 5.97842 8.40252 5.64997 8.12591 5.37336C7.84929 5.09674 7.52084 4.8774 7.15936 4.72788C6.79787 4.57836 6.41045 4.50161 6.01926 4.502ZM6.01926 8.543C5.80902 8.543 5.6035 8.48066 5.42869 8.36385C5.25388 8.24705 5.11763 8.08103 5.03718 7.88679C4.95672 7.69256 4.93567 7.47882 4.97669 7.27262C5.0177 7.06642 5.11894 6.87701 5.26761 6.72835C5.41627 6.57968 5.60568 6.47844 5.81188 6.43743C6.01808 6.39641 6.23182 6.41746 6.42605 6.49792C6.62029 6.57837 6.78631 6.71462 6.90311 6.88943C7.01992 7.06424 7.08226 7.26976 7.08226 7.48C7.082 7.76184 6.96992 8.03207 6.77062 8.23136C6.57133 8.43066 6.3011 8.54274 6.01926 8.543Z" fill="#121214"/>
<path d="M21.0272 11.296V6.996C21.0202 6.54446 20.9515 6.09598 20.8232 5.663C20.4951 4.51832 19.7689 3.52848 18.7755 2.87186C17.7821 2.21524 16.5869 1.93503 15.4052 2.08172C14.2234 2.22841 13.133 2.79235 12.3303 3.67192C11.5276 4.55149 11.0655 5.68884 11.0272 6.879V7.127L11.0172 7.997V17.949H11.0132V17.99C11.0132 18.5204 10.8025 19.0291 10.4274 19.4042C10.0523 19.7793 9.54362 19.99 9.01318 19.99C8.48275 19.99 7.97404 19.7793 7.59897 19.4042C7.2239 19.0291 7.01318 18.5204 7.01318 17.99C7.01318 17.978 7.01618 17.966 7.01718 17.953H7.01318V16.01H5.01318V18.01H5.01518C5.01585 19.0703 5.4377 20.087 6.18794 20.8363C6.93818 21.5856 7.95535 22.0062 9.01568 22.0055C10.076 22.0048 11.0927 21.583 11.842 20.8327C12.5913 20.0825 13.0118 19.0653 13.0112 18.005H13.0132V17.023H13.0182V8.997L13.0282 7.127V6.88C13.0567 6.09276 13.3936 5.3483 13.9662 4.80728C14.5388 4.26626 15.3011 3.97208 16.0887 3.98823C16.8763 4.00437 17.626 4.32955 18.1759 4.89358C18.7259 5.45761 19.032 6.21525 19.0282 7.003V11.278C18.6452 11.4947 18.3445 11.8317 18.1725 12.2367C18.0006 12.6417 17.9671 13.0921 18.0772 13.5181C18.1873 13.9441 18.4349 14.3218 18.7816 14.5928C19.1283 14.8638 19.5546 15.0128 19.9946 15.0167C20.4346 15.0207 20.8636 14.8794 21.2151 14.6147C21.5666 14.35 21.8209 13.9768 21.9387 13.5528C22.0564 13.1289 22.031 12.6779 21.8664 12.2699C21.7018 11.8619 21.4072 11.5195 21.0282 11.296H21.0272Z" fill="#121214"/>
</svg>
